<?xml version="1.0" encoding="UTF-8" standalone="no"?>
<!DOCTYPE svg PUBLIC "-//W3C//DTD SVG 1.1//EN"
 "http://www.w3.org/Graphics/SVG/1.1/DTD/svg11.dtd">
<!-- Generated by graphviz version 14.1.2 (20260124.0452)
 -->
<!-- Pages: 1 -->
<svg width="778pt" height="67pt"
 viewBox="0.00 0.00 778.00 67.00" xmlns="http://www.w3.org/2000/svg" xmlns:xlink="http://www.w3.org/1999/xlink">
<g id="graph0" class="graph" transform="scale(1 1) rotate(0) translate(4 63)">
<polygon fill="white" stroke="none" points="-4,4 -4,-63 774.17,-63 774.17,4 -4,4"/>
<!-- Module1 -->
<g id="node1" class="node">
<title>Module1</title>
<polygon fill="none" stroke="black" points="94,-36 0,-36 0,0 94,0 94,-36"/>
<text xml:space="preserve" text-anchor="middle" x="47" y="-12.95" font-family="Times,serif" font-size="14.00">Process Reads</text>
</g>
<!-- Between1 -->
<g id="node4" class="node">
<title>Between1</title>
<polygon fill="none" stroke="black" points="178.74,-36 130,-18 178.74,0 227.47,-18 178.74,-36"/>
<text xml:space="preserve" text-anchor="middle" x="178.74" y="-12.95" font-family="Times,serif" font-size="14.00">Test...</text>
</g>
<!-- Module1&#45;&gt;Between1 -->
<g id="edge1" class="edge">
<title>Module1&#45;&gt;Between1</title>
<path fill="none" stroke="black" d="M94.47,-18C101.99,-18 109.88,-18 117.67,-18"/>
<polygon fill="black" stroke="black" points="117.45,-21.5 127.45,-18 117.45,-14.5 117.45,-21.5"/>
</g>
<!-- Module2 -->
<g id="node2" class="node">
<title>Module2</title>
<polygon fill="none" stroke="black" points="370.22,-36 263.47,-36 263.47,0 370.22,0 370.22,-36"/>
<text xml:space="preserve" text-anchor="middle" x="316.85" y="-12.95" font-family="Times,serif" font-size="14.00">Compare Kmers</text>
</g>
<!-- Between2 -->
<g id="node5" class="node">
<title>Between2</title>
<polygon fill="none" stroke="black" points="454.96,-36 406.22,-18 454.96,0 503.7,-18 454.96,-36"/>
<text xml:space="preserve" text-anchor="middle" x="454.96" y="-12.95" font-family="Times,serif" font-size="14.00">Test...</text>
</g>
<!-- Module2&#45;&gt;Between2 -->
<g id="edge3" class="edge">
<title>Module2&#45;&gt;Between2</title>
<path fill="none" stroke="black" d="M370.47,-18C378.11,-18 386.03,-18 393.8,-18"/>
<polygon fill="black" stroke="black" points="393.53,-21.5 403.53,-18 393.53,-14.5 393.53,-21.5"/>
</g>
<!-- Module3 -->
<g id="node3" class="node">
<title>Module3</title>
<polygon fill="none" stroke="black" points="636.7,-59 539.7,-59 539.7,-23 636.7,-23 636.7,-59"/>
<text xml:space="preserve" text-anchor="middle" x="588.2" y="-35.95" font-family="Times,serif" font-size="14.00">Create Contigs</text>
</g>
<!-- End -->
<g id="node6" class="node">
<title>End</title>
<polygon fill="none" stroke="black" points="721.43,-36 672.7,-18 721.43,0 770.17,-18 721.43,-36"/>
<text xml:space="preserve" text-anchor="middle" x="721.43" y="-12.95" font-family="Times,serif" font-size="14.00">Test...</text>
</g>
<!-- Module3&#45;&gt;End -->
<g id="edge6" class="edge">
<title>Module3&#45;&gt;End</title>
<path fill="none" stroke="black" d="M636.95,-32.63C649.74,-30.39 663.51,-27.98 676.11,-25.77"/>
<polygon fill="black" stroke="black" points="676.55,-29.24 685.8,-24.07 675.35,-22.35 676.55,-29.24"/>
</g>
<!-- Between1&#45;&gt;Module2 -->
<g id="edge2" class="edge">
<title>Between1&#45;&gt;Module2</title>
<path fill="none" stroke="black" d="M228.88,-18C236.26,-18 243.96,-18 251.6,-18"/>
<polygon fill="black" stroke="black" points="251.59,-21.5 261.59,-18 251.59,-14.5 251.59,-21.5"/>
</g>
<!-- Between2&#45;&gt;Module3 -->
<g id="edge4" class="edge">
<title>Between2&#45;&gt;Module3</title>
<path fill="none" stroke="black" d="M489.08,-23.8C500.94,-25.88 514.7,-28.29 528.1,-30.64"/>
<polygon fill="black" stroke="black" points="527.27,-34.05 537.72,-32.33 528.48,-27.16 527.27,-34.05"/>
</g>
<!-- Between2&#45;&gt;End -->
<g id="edge5" class="edge">
<title>Between2&#45;&gt;End</title>
<path fill="none" stroke="black" d="M498.54,-15.57C511.73,-14.93 526.31,-14.32 539.7,-14 582.79,-12.97 593.6,-12.97 636.7,-14 646.32,-14.23 656.55,-14.61 666.45,-15.04"/>
<polygon fill="black" stroke="black" points="666.18,-18.53 676.33,-15.5 666.51,-11.54 666.18,-18.53"/>
</g>
</g>
</svg>
